<?xml version="1.0" encoding="UTF-8"?>
<svg version="1.1" xmlns="http://www.w3.org/2000/svg" width="2000" height="2000">
<path d="M0 0 C0.96679688 0.18224121 1.93359375 0.36448242 2.9296875 0.55224609 C15.18534045 2.9092539 27.24724692 5.77919704 39 10 C40.12124268 10.39928711 40.12124268 10.39928711 41.26513672 10.80664062 C82.60045261 25.78847326 118.00136236 53.7459994 144 89 C144.46664062 89.62616211 144.93328125 90.25232422 145.4140625 90.89746094 C153.93697437 102.38857941 161.15570263 114.44732185 168 127 C168.63107666 128.13961182 169.26215332 129.27922363 169.91235352 130.45336914 C174.68407447 139.1494491 178.75849675 147.97972166 182.4375 157.1875 C182.71347015 157.87320068 182.98944031 158.55890137 183.27377319 159.26538086 C215.47288734 239.51345788 222.89287447 328.02250164 219.25 413.75 C219.20709839 414.77058502 219.16419678 415.79117004 219.11999512 416.84268188 C215.69315304 496.27789187 201.75310431 574.25874391 181.51763916 651.03155518 C180.80076887 653.75762329 180.09313007 656.4860489 179.38671875 659.21484375 C178.46685513 662.76756286 177.53947382 666.31816067 176.60546875 669.8671875 C175.51892223 674.00043586 174.45009704 678.13791683 173.38903809 682.27775574 C153.9803809 757.91724782 127.55240226 831.03256076 92.6875 900.9375 C92.27715515 901.76195618 91.8668103 902.58641235 91.44403076 903.43585205 C83.15280298 920.05701084 74.17040114 936.242911 64.67724609 952.20581055 C63.49481737 954.19622406 62.31954555 956.19074949 61.14453125 958.18554688 C56.08643295 966.73153388 50.74303616 975.04001862 45.17181396 983.25970459 C43.51118761 985.72594966 41.88012597 988.21127495 40.2485199 990.69677734 C31.26722259 1004.37351005 21.55900348 1017.52248378 11.34716797 1030.30126953 C9.95777572 1032.0532433 8.58808149 1033.81914003 7.22265625 1035.58984375 C2.28256168 1041.98204245 -2.76593662 1048.13119624 -8.3203125 1054.01171875 C-10.65660768 1056.53526894 -12.75928404 1059.21532872 -14.89453125 1061.91015625 C-20.37655687 1068.64824335 -26.46205041 1074.72822759 -32.62963867 1080.83544922 C-34.5681756 1082.75562183 -36.49848211 1084.68378456 -38.42773438 1086.61328125 C-44.45029099 1092.61841653 -50.49654445 1098.51137851 -57 1104 C-58.37672313 1105.24810193 -59.75208133 1106.49771435 -61.125 1107.75 C-66.57029477 1112.5912945 -72.30286015 1117.04917532 -78.06689453 1121.49951172 C-80.01187554 1123.00921787 -81.9420498 1124.53640821 -83.87109375 1126.06640625 C-100.79541077 1139.38336124 -118.91315704 1151.03207707 -138 1161 C-138.67047363 1161.3511084 -139.34094727 1161.7022168 -140.03173828 1162.06396484 C-155.84896861 1170.28676579 -172.03632101 1177.49313406 -189 1183 C-190.14758789 1183.37487549 -190.14758789 1183.37487549 -191.31835938 1183.75732422 C-212.15010106 1190.48370764 -233.24835499 1194.65804455 -255 1197 C-256.23097412 1197.14465698 -256.23097412 1197.14465698 -257.48681641 1197.29223633 C-266.26434944 1198.22940781 -275.0586347 1198.20043014 -283.875 1198.1875 C-284.69935547 1198.18656342 -285.52371094 1198.18562683 -286.37304688 1198.18466187 C-311.79678005 1198.12210104 -336.75339871 1195.19649651 -361.44799805 1188.91162109 C-362.17878319 1188.7272197 -362.90956833 1188.5428183 -363.66249847 1188.35282898 C-365.44208214 1187.90353243 -367.22110146 1187.45200157 -369 1187 C-369.06247129 1115.06490507 -368.93688035 1043.13261074 -368.61115968 971.19821465 C-368.57228608 962.546297 -368.53669791 953.89436968 -368.50268555 945.24243164 C-368.08191723 838.48335419 -368.08191723 838.48335419 -367 793 C-362.79027803 794.60456876 -359.46105977 796.61133409 -355.75 799.1875 C-344.74063509 806.50086383 -333.33355917 813.1998645 -322 820 C-322 799.21 -322 778.42 -322 757 C-317.59682633 758.76126947 -313.94199048 760.82782954 -310 763.375 C-232.64698084 812.39050654 -137.45455726 841.80280203 -46 822 C-6.1158111 812.85961605 30.42464543 796.17165404 62 770 C62.95777344 769.27683594 63.91554688 768.55367187 64.90234375 767.80859375 C72.17610301 762.00881214 74.59571641 755.85788691 77 747 C77.23203125 746.2678125 77.4640625 745.535625 77.703125 744.78125 C82.98878782 726.96101536 79.58712146 707.28345669 71.125 691.0625 C68.17081228 686.0230033 64.80857474 681.42504028 61 677 C60.49082031 676.40703125 59.98164062 675.8140625 59.45703125 675.203125 C28.96528646 642.37744419 -24.14735924 637.02189289 -66 635 C-70.83263752 634.82678488 -75.66611304 634.69543762 -80.5 634.5625 C-120.66975248 633.37393339 -158.07371276 625.79472915 -195 610 C-195.8151709 609.65179199 -196.6303418 609.30358398 -197.47021484 608.94482422 C-219.44208954 599.41845729 -239.0719448 585.75728771 -257 570 C-258.32837891 568.83984375 -258.32837891 568.83984375 -259.68359375 567.65625 C-269.32291209 559.11470114 -278.05281212 550.13864698 -286 540 C-286.47808105 539.40364746 -286.95616211 538.80729492 -287.44873047 538.19287109 C-335.25997207 478.52311391 -353.53849472 402.5554101 -353.3125 327.3125 C-353.31100952 326.08153595 -353.30951904 324.8505719 -353.3079834 323.58230591 C-353.26939214 305.85091785 -352.82515742 288.53241549 -350 271 C-349.71851707 269.07425278 -349.43726745 267.14847145 -349.15625 265.22265625 C-342.218937 220.0590978 -326.30442442 173.10703027 -299 136 C-298.4946875 135.30970703 -297.989375 134.61941406 -297.46875 133.90820312 C-291.41248587 125.6900274 -285.16940979 117.77954685 -278.1796875 110.33203125 C-276.29254723 108.31299408 -274.51702498 106.24806733 -272.75 104.125 C-261.84464459 91.6361972 -248.5167563 81.32604854 -235.0625 71.75 C-231.28452745 69.03887851 -228.06265197 66.20347104 -224.86328125 62.84375 C-220.87299395 58.89528961 -216.3750865 55.50740175 -212 52 C-210.86304688 51.04480469 -210.86304688 51.04480469 -209.703125 50.0703125 C-177.45926509 23.27455306 -137.13622472 6.80904611 -96 0 C-95.10861328 -0.16081055 -94.21722656 -0.32162109 -93.29882812 -0.48730469 C-63.62538118 -5.71302065 -29.58942084 -5.75779215 0 0 Z M-289 161 C-288 163 -288 163 -288 163 Z M-290 163 C-320.61391075 213.88066173 -333.38978833 273.93399599 -332 333 C-331.98743164 333.80550293 -331.97486328 334.61100586 -331.96191406 335.44091797 C-331.07816118 386.09438669 -321.15356905 438.13341981 -297.04052734 483.05908203 C-296.3164032 484.40980632 -295.60122931 485.76535125 -294.89306641 487.12451172 C-286.04823338 504.09237956 -275.08267502 519.20749392 -262.359375 533.47314453 C-261.07221476 534.91888809 -259.80121976 536.37897664 -258.53125 537.83984375 C-254.61164083 542.30309735 -250.61169123 546.42157768 -246.0625 550.2421875 C-244.63378727 551.4598404 -243.23947446 552.71858479 -241.875 554.0078125 C-194.85613748 598.32626738 -129.67214885 611.52506438 -67.28198242 613.33618164 C-23.94054213 614.60187003 25.76660675 620.10689701 61 648 C62.25296875 648.95326172 62.25296875 648.95326172 63.53125 649.92578125 C85.43684134 666.91581068 97.66653787 689.56539895 101.40234375 716.94921875 C101.63309743 718.96278169 101.82289569 720.98101089 102 723 C114.37349813 708.10667094 118.17220945 684.07126436 116.7265625 665.484375 C114.37360244 644.26333898 105.9898232 627.79543068 91 613 C90.27039062 612.27167969 89.54078125 611.54335938 88.7890625 610.79296875 C55.83568513 579.73839194 5.27275241 573.88944392 -37.80273438 572.35424805 C-77.97650898 570.91784847 -116.67116151 566.92911643 -154 551 C-155.27034834 550.48318127 -156.54119224 549.96757915 -157.8125 549.453125 C-193.92058024 534.57555064 -227.1224836 507.53862059 -250 476 C-250.3923584 475.46310547 -250.7847168 474.92621094 -251.18896484 474.37304688 C-257.33229321 465.90764839 -262.83136914 457.08399839 -268 448 C-268.39832031 447.30197266 -268.79664063 446.60394531 -269.20703125 445.88476562 C-297.06189933 396.49764237 -307.21785628 339.13001194 -307.25 283 C-307.25101212 281.40679428 -307.25101212 281.40679428 -307.25204468 279.78140259 C-307.21418886 242.13892521 -302.94307215 203.57065402 -289.56640625 168.109375 C-288.74820801 165.83632094 -288.74820801 165.83632094 -290 163 Z M-346 832 C-346.17403451 861.89579321 -346.34011763 891.79162778 -346.5 921.6875 C-346.50594854 922.79812538 -346.51189708 923.90875075 -346.51802588 925.05303144 C-346.85098381 987.30635569 -347.09839715 1049.55821417 -347.0625 1111.8125 C-347.06207577 1112.57122013 -347.06165154 1113.32994025 -347.06121445 1114.1116519 C-347.05061214 1132.74111419 -347.03150435 1151.37056029 -347 1170 C-342.80584687 1170.69992533 -338.61068399 1171.39336911 -334.41455078 1172.08129883 C-332.99272068 1172.31527696 -331.57116058 1172.55090296 -330.14990234 1172.78833008 C-318.43906357 1174.74289138 -306.84542018 1176.13189356 -294.95703125 1176.203125 C-294.15375397 1176.21013931 -293.35047668 1176.21715363 -292.52285767 1176.22438049 C-289.95268008 1176.24171996 -287.38273389 1176.24823092 -284.8125 1176.25 C-283.92805206 1176.25067474 -283.04360413 1176.25134949 -282.13235474 1176.25204468 C-222.63643432 1176.18020673 -164.72046568 1155.87846951 -116 1122 C-115.45811035 1121.62407715 -114.9162207 1121.2481543 -114.35791016 1120.86083984 C-96.94997897 1108.74126849 -80.65914211 1095.29747758 -65 1081 C-64.06671875 1080.15953125 -63.1334375 1079.3190625 -62.171875 1078.453125 C-52.58066939 1069.7878031 -43.10533146 1060.87544594 -34.73046875 1051.01171875 C-32.58466726 1048.51716397 -30.35414323 1046.10781018 -28.125 1043.6875 C-23.20504655 1038.28519817 -18.55454998 1032.71222823 -14 1027 C-13.58137695 1026.47567383 -13.16275391 1025.95134766 -12.73144531 1025.41113281 C-2.56738322 1012.65519721 7.21531976 999.63510458 16.625 986.3125 C17.22932861 985.46284668 17.83365723 984.61319336 18.45629883 983.73779297 C19.01986084 982.9335791 19.58342285 982.12936523 20.1640625 981.30078125 C20.66373535 980.59091064 21.1634082 979.88104004 21.67822266 979.1496582 C23.09623288 976.8434927 24.06481739 974.53609313 25 972 C18.80746665 977.99277421 13.16116547 984.50940796 7.5 991 C6.33413308 992.33403268 5.16735085 993.66726564 4 995 C3.39486572 995.69198486 2.78973145 996.38396973 2.16625977 997.09692383 C-3.90737552 1003.94641235 -10.29207728 1010.44560537 -16.77514648 1016.90551758 C-18.5667595 1018.6917467 -20.35293055 1020.48329347 -22.13867188 1022.27539062 C-27.92117914 1028.06191101 -33.71925409 1033.74882858 -40 1039 C-40.63075439 1039.5374585 -41.26150879 1040.07491699 -41.91137695 1040.62866211 C-84.33467063 1076.64424323 -132.76913637 1103.72451873 -187 1117 C-188.16112305 1117.29148926 -188.16112305 1117.29148926 -189.34570312 1117.58886719 C-228.20443548 1127.19458489 -270.20979301 1126.37351593 -309.27275085 1118.53533936 C-312.11602151 1117.97722581 -314.96390617 1117.45305836 -317.81518555 1116.9375 C-318.79061813 1116.76089844 -319.76605072 1116.58429688 -320.77104187 1116.40234375 C-321.50659805 1116.26957031 -322.24215424 1116.13679688 -323 1116 C-322.99484627 1114.90619302 -322.98969254 1113.81238604 -322.98438263 1112.68543339 C-322.85786108 1085.8217387 -322.732686 1058.95803798 -322.60884857 1032.09433079 C-322.54892706 1019.10219089 -322.4885995 1006.11005314 -322.42724609 993.11791992 C-322.37364649 981.76749029 -322.32087988 970.41705711 -322.26903296 959.06661934 C-322.24166361 953.08076725 -322.21393224 947.09491743 -322.18519592 941.10907173 C-322.17708932 939.4025035 -322.17708932 939.4025035 -322.16881895 937.66145915 C-322.15795123 935.39197946 -322.14682825 933.12250099 -322.13544512 930.85302383 C-322.1087536 925.35657954 -322.08872397 919.86027246 -322.08371735 914.36376286 C-322.07047483 904.41023383 -322.00963367 894.466087 -321.75615072 884.51535445 C-321.64426815 879.95260162 -321.56582939 875.38956622 -321.49115849 870.82607067 C-321.4467198 868.66676523 -321.3861546 866.5077238 -321.30847073 864.34935868 C-320.42904507 853.57482426 -320.42904507 853.57482426 -323.51707458 843.62117195 C-325.932328 841.91735983 -328.22713684 841.03238853 -331 840 C-333.02196781 838.96058181 -335.0072466 837.86467899 -336.99653673 836.76415771 C-339.97110724 835.12400031 -342.98529815 833.56494404 -346 832 Z M26 969 C27 971 27 971 27 971 Z " fill="#FFFFFF" transform="translate(1363,342)"/>
<path d="M0 0 C0.94875 0.76441406 1.8975 1.52882813 2.875 2.31640625 C7.48344434 6.03625427 11.86221114 9.75547 16 14 C16.72425171 14.73246948 16.72425171 14.73246948 17.46313477 15.47973633 C44.68240945 43.15898311 64.44554392 77.21035389 79 113 C79.53318848 114.30420898 79.53318848 114.30420898 80.07714844 115.63476562 C101.12191397 167.60446831 110.67709733 224.21647395 114 280 C114.04203552 280.69436157 114.08407104 281.38872314 114.12738037 282.10412598 C115.05222899 297.81532954 115.24259556 313.51418884 115.25 329.25 C115.25101212 331.20670624 115.25101212 331.20670624 115.25204468 333.20294189 C115.22651541 401.70894163 107.24388894 470.01406383 93 537 C92.81606689 537.86806274 92.63213379 538.73612549 92.44262695 539.63049316 C78.50959883 605.15551726 59.02232584 669.24470305 33 731 C32.51547363 732.1559668 32.03094727 733.31193359 31.53173828 734.50292969 C22.24430915 756.51532093 11.96550156 778.2636273 1.19921875 799.59375 C-0.95240179 803.85655734 -2.89472889 808.19066408 -4.8125 812.5625 C-20.89741475 848.62789479 -39.10654133 883.49628817 -60 917 C-60.95697075 918.55392357 -61.91285323 920.10851836 -62.8671875 921.6640625 C-78.74789234 947.46172788 -96.61792091 971.73097771 -115.62744141 995.29101562 C-116.82759636 996.78533877 -118.01454156 998.29025178 -119.19921875 999.796875 C-128.06139983 1010.93790265 -138.07333958 1021.19026498 -148.21166992 1031.16992188 C-149.98484194 1032.98448808 -151.62505986 1034.86500422 -153.25 1036.8125 C-157.59395908 1041.85901283 -162.55751013 1046.23073287 -167.50976562 1050.66259766 C-168.88377518 1051.89569469 -170.24709216 1053.14067861 -171.609375 1054.38671875 C-177.563543 1059.819423 -183.72379712 1064.94506855 -190 1070 C-191.15670132 1070.94866872 -192.31292942 1071.89791467 -193.46875 1072.84765625 C-201.68368963 1079.55952975 -210.12822653 1085.77404923 -218.96289062 1091.64550781 C-220.31374884 1092.54370548 -221.66145674 1093.44666042 -223.00585938 1094.35449219 C-245.60344193 1109.60621336 -270.34661745 1122.68560058 -296 1132 C-297.12680176 1132.41113037 -297.12680176 1132.41113037 -298.27636719 1132.83056641 C-331.30275233 1144.72033001 -365.06049629 1150.22927129 -400.0625 1150.25 C-401.5979245 1150.25101212 -401.5979245 1150.25101212 -403.16436768 1150.25204468 C-429.67529838 1150.22432713 -455.19930891 1147.46902512 -480.8359375 1140.41992188 C-482.29459229 1140.01960754 -482.29459229 1140.01960754 -483.78271484 1139.61120605 C-484.51441895 1139.40950806 -485.24612305 1139.20781006 -486 1139 C-486.09151612 1083.24148269 -485.85838195 1027.48453164 -485.61115968 971.72665632 C-485.57312447 963.10057429 -485.53731301 954.474485 -485.50268555 945.84838867 C-485.23336059 878.89589416 -484.75800377 811.94880778 -484 745 C-482.56466833 745.79131428 -481.13007871 746.58397465 -479.69580078 747.37719727 C-478.8968338 747.81846451 -478.09786682 748.25973175 -477.27468872 748.71437073 C-474.39512233 750.34187026 -471.63623466 752.11710378 -468.875 753.9375 C-462.42567378 758.13815074 -455.88226031 762.17828606 -449.3125 766.1875 C-448.36294434 766.76943115 -447.41338867 767.3513623 -446.43505859 767.95092773 C-445.50387207 768.51755127 -444.57268555 769.0841748 -443.61328125 769.66796875 C-442.79641846 770.16578857 -441.97955566 770.6636084 -441.13793945 771.17651367 C-436.4795935 773.88352261 -431.73816251 776.43592691 -427 779 C-427.00222061 778.32729568 -427.00444122 777.65459137 -427.00672913 776.96150208 C-427.02900519 769.90378353 -427.04399889 762.84607511 -427.05493164 755.78833008 C-427.05993292 753.1610473 -427.06673607 750.53376726 -427.07543945 747.90649414 C-427.0876905 744.11083292 -427.09327053 740.31520877 -427.09765625 736.51953125 C-427.10281754 735.36169632 -427.10797882 734.20386139 -427.11329651 733.01094055 C-427.11381663 725.29714446 -426.69834494 717.68169536 -426 710 C-422.7784682 711.26175021 -419.85314504 712.5762343 -416.91015625 714.3984375 C-416.13776611 714.87152344 -415.36537598 715.34460937 -414.56958008 715.83203125 C-413.32857544 716.59580078 -413.32857544 716.59580078 -412.0625 717.375 C-359.81137388 749.04874015 -301.22276264 772.83497798 -240 779 C-239.12851318 779.0928125 -238.25702637 779.185625 -237.35913086 779.28125 C-176.92488104 785.09273449 -116.77041069 771.60483706 -65 740 C-64.2898877 739.57605957 -63.57977539 739.15211914 -62.84814453 738.71533203 C-53.25478157 732.90592673 -47.48645591 726.24156867 -43 716 C-42.71688965 715.36787598 -42.4337793 714.73575195 -42.14208984 714.08447266 C-32.66472304 692.4320412 -31.61130834 671.12222859 -40.17578125 648.95703125 C-50.90506696 624.9981248 -74.92199886 610.93961844 -98.37207031 601.74658203 C-110.76603075 597.08292391 -123.4223307 594.1519605 -136.4375 591.8125 C-137.7210437 591.57998535 -137.7210437 591.57998535 -139.03051758 591.34277344 C-155.73183296 588.52105493 -172.54740181 587.69547833 -189.44973755 587.1668396 C-225.36851073 586.00932713 -225.36851073 586.00932713 -243 583 C-243.98967773 582.83661133 -244.97935547 582.67322266 -245.99902344 582.50488281 C-286.29751757 575.67698262 -323.94475392 560.01462847 -357 536 C-357.5971582 535.57396484 -358.19431641 535.14792969 -358.80957031 534.70898438 C-374.71345645 523.32377707 -389.54987592 509.01454526 -401.67089844 493.6796875 C-402.59682839 492.50951886 -403.52754255 491.34312671 -404.46191406 490.1796875 C-413.65119806 478.7090462 -421.57039898 466.67524731 -429 454 C-429.38494629 453.3488623 -429.76989258 452.69772461 -430.16650391 452.02685547 C-453.69296013 411.76360542 -464.66289471 364.0080981 -469 318 C-469.09716309 316.97946533 -469.19432617 315.95893066 -469.29443359 314.9074707 C-470.23462715 303.64118365 -470.24351955 292.36143625 -470.25 281.0625 C-470.25101212 279.47071426 -470.25101212 279.47071426 -470.25204468 277.84677124 C-470.23414766 260.05361827 -469.50223448 242.64014281 -467 225 C-466.82839355 223.7840918 -466.65678711 222.56818359 -466.47998047 221.31542969 C-460.98906589 183.83588943 -449.37445594 148.57396198 -432 115 C-431.49726563 114.02417969 -430.99453125 113.04835938 -430.4765625 112.04296875 C-421.20768924 94.55501174 -409.46871198 78.47029917 -396 64 C-394.91259634 62.73264774 -393.82914406 61.46189262 -392.75 60.1875 C-384.34267481 50.57356796 -375.14022714 41.76467192 -365 34 C-364.45682129 33.58041016 -363.91364258 33.16082031 -363.35400391 32.72851562 C-350.17095854 22.59624513 -336.12707099 14.18117487 -321.5 6.3125 C-315.3726041 3.01167016 -309.94205815 -0.36802365 -304.64453125 -4.9140625 C-287.2430074 -18.63993212 -265.70532454 -28.48365505 -245 -36 C-244.25379395 -36.27295898 -243.50758789 -36.54591797 -242.73876953 -36.82714844 C-163.36684529 -65.28355735 -65.58496123 -54.47435103 0 0 Z M-375 73 C-387.87344302 86.38027149 -398.5760595 101.01732824 -408 117 C-408.41491699 117.69818848 -408.82983398 118.39637695 -409.25732422 119.11572266 C-434.74791521 162.34486409 -447.86103395 214.69024304 -448.23828125 264.71875 C-448.2480751 265.80305801 -448.25786896 266.88736603 -448.26795959 268.00453186 C-448.59052676 313.03928417 -444.52866695 355.04800511 -430 398 C-429.74250977 398.76554199 -429.48501953 399.53108398 -429.21972656 400.31982422 C-427.63742146 404.94844648 -425.88645373 409.48722435 -424 414 C-423.66307129 414.80791992 -423.32614258 415.61583984 -422.97900391 416.44824219 C-412.75336539 440.62281516 -399.372621 462.66458077 -382.15234375 482.453125 C-380 485 -380 485 -379 487 C-378.34 487 -377.68 487 -377 487 C-376.77570313 487.55042969 -376.55140625 488.10085938 -376.3203125 488.66796875 C-374.58906024 491.72583148 -372.37762275 493.84821826 -369.875 496.3125 C-368.50988281 497.66794922 -368.50988281 497.66794922 -367.1171875 499.05078125 C-320.64403707 543.65038284 -258.60041722 563.94467006 -195.078125 565.140625 C-139.16668642 566.28427611 -77.22298997 573.56707366 -36.28515625 615.80078125 C-19.95590079 634.39449433 -12.54330437 656.07823557 -12.875 680.6875 C-12.88402344 681.97333984 -12.89304687 683.25917969 -12.90234375 684.58398438 C-12.9256811 687.72285732 -12.95841967 690.86132476 -13 694 C2.9506688 678.88590473 14.43269319 652.69526864 15.203125 630.75 C15.59928404 606.75083646 8.24983722 586.22055453 -8.29296875 568.60717773 C-13.38052152 563.39959052 -18.98919755 559.09901083 -25 555 C-25.81210937 554.40960937 -26.62421875 553.81921875 -27.4609375 553.2109375 C-48.97187291 538.35007045 -76.62295962 532.18879833 -102 528 C-103.07016357 527.8232373 -104.14032715 527.64647461 -105.24291992 527.46435547 C-121.00475965 525.18989193 -137.02791023 525.05593401 -152.92553711 524.47363281 C-210.7888835 522.3307916 -265.10118928 508.56628652 -311.28222656 472.34326172 C-312.76662057 471.18249767 -314.26849981 470.04415859 -315.7734375 468.91015625 C-329.6420457 458.13531449 -342.41657298 444.99599547 -352.71533203 430.77197266 C-354.08075024 428.88861929 -355.47573384 427.02922357 -356.87109375 425.16796875 C-370.36668085 406.8943038 -380.48182736 387.00008607 -389 366 C-389.2892334 365.30986816 -389.5784668 364.61973633 -389.87646484 363.90869141 C-402.67911412 333.35135023 -408.07654596 299.80279367 -411 267 C-411.07202637 266.19900879 -411.14405273 265.39801758 -411.21826172 264.57275391 C-416.50803089 201.97949059 -407.01472368 132.03579271 -375.02368164 77.18408203 C-374.6858667 76.46333496 -374.34805176 75.74258789 -374 75 C-374.495 74.01 -374.495 74.01 -375 73 Z M-462 785 C-463.21712698 795.90597509 -463.17324716 806.7957513 -463.20532227 817.75268555 C-463.21492196 819.84335006 -463.22493319 821.93401272 -463.23532104 824.02467346 C-463.26231671 829.7038362 -463.28339851 835.38300702 -463.30332303 841.0621984 C-463.32548078 847.11600829 -463.35277912 853.16979534 -463.37937927 859.22358704 C-463.42369253 869.47871812 -463.46437901 879.73385848 -463.50268555 889.98901367 C-463.54122761 900.30250505 -463.58265123 910.61597825 -463.62768555 920.92944336 C-463.92027206 987.95326083 -464.0685226 1054.97554968 -464 1122 C-460.51887512 1122.64546222 -457.03686508 1123.28602459 -453.5546875 1123.92578125 C-452.09228638 1124.1970282 -452.09228638 1124.1970282 -450.6003418 1124.47375488 C-408.81945647 1132.12980094 -364.68429024 1130.73113844 -324 1118 C-323.13906738 1117.73348633 -322.27813477 1117.46697266 -321.39111328 1117.19238281 C-290.82595456 1107.62946321 -261.33267697 1094.37765005 -235 1076 C-234.38914551 1075.5776709 -233.77829102 1075.1553418 -233.14892578 1074.72021484 C-224.55560304 1068.7600712 -216.21183123 1062.47440248 -208 1056 C-207.38398926 1055.51692383 -206.76797852 1055.03384766 -206.13330078 1054.53613281 C-193.71136143 1044.75975107 -182.16411731 1034.1851797 -171 1023 C-169.38851566 1021.39924129 -167.77652304 1019.79899413 -166.1640625 1018.19921875 C-164.31763651 1016.36205135 -162.47128454 1014.52480955 -160.625 1012.6875 C-159.70460938 1011.77548828 -158.78421875 1010.86347656 -157.8359375 1009.92382812 C-152.67387269 1004.78019926 -147.72293711 999.54811384 -143 994 C-141.52322165 992.33121676 -140.04457339 990.66408241 -138.5625 989 C-137.54349609 987.8553125 -137.54349609 987.8553125 -136.50390625 986.6875 C-136.00761719 986.130625 -135.51132812 985.57375 -135 985 C-135.33 984.34 -135.66 983.68 -136 983 C-136.37769531 983.40089844 -136.75539063 983.80179688 -137.14453125 984.21484375 C-142.38825575 989.63049365 -148.12518502 994.28982839 -154 999 C-155.09103656 999.90350947 -156.18084107 1000.80850837 -157.26953125 1001.71484375 C-171.91572683 1013.80742818 -187.75352737 1024.53670366 -204.22998047 1033.98046875 C-206.03963504 1035.02282979 -207.83422885 1036.08834279 -209.62890625 1037.15625 C-239.1104022 1054.47667675 -271.70857759 1065.96266022 -305.25 1072.25 C-306.05139404 1072.40122314 -306.85278809 1072.55244629 -307.6784668 1072.70825195 C-323.57104571 1075.49910542 -339.45207974 1076.37819806 -355.5625 1076.3125 C-356.47420959 1076.31100952 -357.38591919 1076.30951904 -358.32525635 1076.3079834 C-379.65563819 1076.24559616 -400.19241546 1074.10265282 -421.0090332 1069.31958008 C-423.36042562 1068.94214627 -425.62180397 1068.98000412 -428 1069 C-427.98747192 1067.84811691 -427.97494385 1066.69623383 -427.96203613 1065.50944519 C-427.79548818 1050.068917 -427.64366598 1034.6282574 -427.5 1019.1875 C-427.48812275 1017.91181908 -427.4762455 1016.63613815 -427.46400833 1015.32180023 C-427.01830282 966.92264243 -426.91196423 918.52603515 -426.9375 870.125 C-426.93792423 869.29692321 -426.93834846 868.46884643 -426.93878555 867.6156764 C-426.94983416 846.41043919 -426.9698736 825.20521902 -427 804 C-427.62815109 803.65874084 -428.25630219 803.31748169 -428.90348816 802.96588135 C-431.78390849 801.40021826 -434.66344368 799.83293398 -437.54296875 798.265625 C-438.53099487 797.7288916 -439.519021 797.1921582 -440.5369873 796.63916016 C-446.77903994 793.23982989 -452.95338251 789.76259536 -459.05078125 786.109375 C-460.77104933 784.91756039 -460.77104933 784.91756039 -462 785 Z " fill="#FFFFFF" transform="translate(878,387)"/>
</svg>
